<?xml version="1.0" standalone="no"?><!DOCTYPE svg PUBLIC "-//W3C//DTD SVG 1.1//EN" "http://www.w3.org/Graphics/SVG/1.1/DTD/svg11.dtd"><svg t="1608298031834" class="icon" viewBox="0 0 1755 1024" version="1.1" xmlns="http://www.w3.org/2000/svg" p-id="7911" xmlns:xlink="http://www.w3.org/1999/xlink" width="137.109375" height="80"><defs><style type="text/css"></style></defs><path d="M666.0684 336.761496a80.602047 80.602047 0 0 0-112.052937 0L21.983441 860.455375a72.117621 72.117621 0 0 0 1.755398 105.323909c31.01204 28.671508 80.455764 27.793809 110.297538-1.609115L610.041931 495.625058l298.564025 294.029245c30.719473 30.134341 81.333463 30.134341 112.052936 0L1694.439342 126.259961a72.117621 72.117621 0 0 0-1.755399-105.323908 80.602047 80.602047 0 0 0-110.297537 1.755398L964.632424 630.790741l-298.564024-294.029245z" fill="#FF4949" p-id="7912"></path><path d="M1560.443925 493.43081c0 40.959298 34.815403 74.458152 77.968949 74.458152a76.359834 76.359834 0 0 0 77.968949-74.604435V74.621989A76.359834 76.359834 0 0 0 1638.412874 0.017554H1212.728742a76.359834 76.359834 0 0 0-77.822665 74.604435c0 40.959298 34.815403 74.311869 77.968949 74.311869h347.568899v344.496952z" fill="#FF4949" p-id="7913"></path></svg>